<?xml version="1.0" standalone="yes"?>
<svg xmlns="http://www.w3.org/2000/svg" width="512" height="513">
<path style="fill:#fcfdfe; stroke:none;" d="M0 0L0 513L512 513L512 0L253 0L170 0C156.939 0 141.844 -2.11249 129 0.228394C107.718 4.10696 123.815 29.7628 115.142 40.6821C111.582 45.1638 100.149 43 95 43C101.98 28.4965 89.9746 10.3571 108 1L75 0L0 0z"/>
<path style="fill:#a5d4ed; stroke:none;" d="M95 43C100 43 110.294 44.9677 114.486 41.9722C118.693 38.9664 117 29.4461 117 25C117 14.4319 117.733 7.54672 127 1C123.835 -0.328125 120.418 -0.00109863 117 0C89.3796 0.0088501 101.272 25.7914 95 43M125 24L125 25L130 25L125 24M123 25L120 30L121 30L123 25z"/>
<path style="fill:#5d4e77; stroke:none;" d="M124.109 26.0285C115.608 30.7654 123.742 43.2213 131.772 37.8958C139.193 32.9734 131.881 21.6972 124.109 26.0285z"/>
<path style="fill:#a5d4ed; stroke:none;" d="M131 25L132 26L131 25M134 28L135 29L134 28M135.333 31.6667L135.667 32.3333L135.333 31.6667M120.333 34.6667L120.667 35.3333L120.333 34.6667M134 35L135 36L134 35M121 36L122 37L121 36M123 38L124 39L123 38M131 38L132 39L131 38M125.667 39.3333L126.333 39.6667L125.667 39.3333M128 39L128 40L131 40L128 39M32 172L52 172L52 78C52 68.0245 48.4282 50.7948 57 44C51.2367 41.5816 35.7013 41.1904 32.7423 48.108C28.6898 57.5821 32 74.7259 32 85L32 172M74.0193 89.7423C66.5331 92.7314 69 104.585 69 111L69 175L69 224C69 229.494 67.2163 238.926 70.179 243.772C73.9052 249.866 89.8277 247 96 247L156 247C163.39 247 175.04 249.204 181.891 246.258C188.461 243.432 186 230.731 186 225L186 162L186 111C186 106.006 187.823 96.3842 184.397 92.3179C180.064 87.1754 164.182 90 158 90C139.018 90 119.975 90.4503 101 89.9854C92.8326 89.7852 81.8945 86.5978 74.0193 89.7423z"/>
<path style="fill:#fd7191; stroke:none;" d="M268 212C292.111 202.699 320.844 198.24 346 206.025C367.63 212.719 384.94 226.882 408 229.714C428.564 232.239 448.229 226.701 467 219L465 223C472.299 215.715 476.178 200.93 478.199 191C486.041 152.48 468.371 107.899 422 111.09C408.945 111.988 396.492 116.967 387.001 126.04C382.711 130.142 375.863 143.152 369.004 142.069C362.978 141.117 359.637 133.013 355.907 129.004C348.895 121.467 339.143 115.251 329 113.015C296.042 105.751 262.666 126.042 259.171 161C257.36 179.103 263.351 194.967 268 212M126 128L127 129L126 128z"/>
<path style="fill:#e9435f; stroke:none;" d="M127.108 129.176C121.683 129.961 117.42 145.643 115.247 150C110.811 158.894 104.261 168.961 103.174 179C101.393 195.439 115.338 209.597 132 206.671C163.822 201.083 148.01 167.555 139.78 150C137.941 146.077 132.556 128.387 127.108 129.176z"/>
<path style="fill:#fd7191; stroke:none;" d="M128 128L129 129L128 128M124 130L125 131L124 130M130 130L131 131L130 130M123 132L124 133L123 132M131 132L132 133L131 132M132 134L133 135L132 134M133 136L134 137L133 136M134 138L135 139L134 138M135 140L136 141L135 140M136 142L137 143L136 142M118 143L119 144L118 143M117 145L118 146L117 145M116 147L117 148L116 147M138 147L139 148L138 147M115 149L116 150L115 149M139 149L140 150L139 149M114 151L115 152L114 151M140 151L141 152L140 151M113 153L114 154L113 153M141 153L142 154L141 153M112 155L113 156L112 155M142 155L143 156L142 155M143.333 157.667L143.667 158.333L143.333 157.667M144 160L145 161L144 160M145 162L146 163L145 162M146 164L147 165L146 164M107 166L108 167L107 166M147 166L148 167L147 166M106 168L107 169L106 168M148 168L149 169L148 168M105 170L106 171L105 170M149 170L150 171L149 170M31 172L31 277L32 277L32 204L31 172z"/>
<path style="fill:#e9435f; stroke:none;" d="M32 172L32 250C32 257.302 29.0884 272.812 33.6034 278.852C36.6623 282.944 42.523 282 47 282L80 282C126.686 282 177.049 287.049 223 280L223 173L186 173L186 225C186 230.257 187.897 240.289 184.258 244.566C179.9 249.689 165.125 247 159 247L93 247C86.9273 247 74.7319 249.374 70.6034 243.852C67.1474 239.229 69 229.488 69 224L69 173L32 172z"/>
<path style="fill:#fd7191; stroke:none;" d="M51 172L51 173L69 173L51 172M104 172L105 173L104 172M150.333 172.667L150.667 173.333L150.333 172.667M186 172L186 173L223 173L223 278L224 278L224 172L186 172M151.333 175.667L151.667 176.333L151.333 175.667M103 176L104 177L103 176M102 182L102 185L103 185L102 182M152 182L152 185L153 185L152 182M151 187L151 190L152 190L151 187M103.333 188.667L103.667 189.333L103.333 188.667M104 191L105 192L104 191M150 191L151 192L150 191M105 193L106 194L105 193M149 193L150 194L149 193M106 195L107 196L106 195M148 195L149 196L148 195M146 198L147 199L146 198M109 199L110 200L109 199M145 199L146 200L145 199M110 200L111 201L110 200M144 200L145 201L144 200M111 201L112 202L111 201M141 202L142 203L141 202z"/>
<path style="fill:#e9435f; stroke:none;" d="M269 211C270.55 219.697 276.401 226.872 281.255 234C294.869 253.989 313.163 270.309 333 283.975C340.598 289.209 354.978 293.939 360.397 301.213C362.923 304.605 362 310.025 362 314L362 345L362 449C362 464.315 364.146 481.232 349.999 491.362C332.839 503.65 299.023 495.521 297.093 472C294.748 443.411 297 413.693 297 385C297 371.972 298.647 357.697 295.243 345C287.919 317.677 255.967 309.365 231 315.761C216.196 319.553 204.553 331.196 200.761 346C198.09 356.427 200 369.273 200 380L200 447C200 465.574 201.407 492.093 177 495.699C171.307 496.54 164.732 496.37 159 495.907C147.003 494.938 136.48 485.012 135.174 473C131.214 436.582 135 397.653 135 361C135 351.188 138.722 332.108 134.397 323.318C132.714 319.898 123.288 320.142 120.318 321.603C116.635 323.416 118 330.667 118 334L118 372L118 440C118 453.134 116.714 467.08 119.517 480C122.856 495.391 134.815 507.349 150 511.239C156.325 512.859 163.516 512 170 512C189.434 512 207.186 503.853 213.64 484C217.432 472.337 216 459.082 216 447L216 383C216 363.777 212.526 334.405 239 331.184C254.393 329.312 272.426 331.376 278.671 348C282.304 357.668 281 368.882 281 379L281 457C281 476.694 281.833 495.482 301 506.651C324.596 520.401 366.292 513.238 375.532 485C380.308 470.407 378 453.153 378 438L378 349L378 316C378 311.874 376.937 305.901 379.028 302.174C383.67 293.899 399.366 289.423 406.91 283.844C429.419 267.201 456.562 245.865 467 219C447.431 224.594 430.065 232.301 409 229.714C385.605 226.841 368.041 212.255 346 205.721C320.813 198.253 293.407 203.058 269 211z"/>
<path style="fill:#fd7191; stroke:none;" d="M114 203L115 204L114 203M140 203L141 204L140 203M116 204L117 205L116 204M138 204L139 205L138 204M118 205L119 206L118 205M136 205L137 206L136 205M121 206L122 207L121 206M133.667 206.333L134.333 206.667L133.667 206.333M127 207L128 208L127 207M460 230L461 231L460 230M279 231L280 232L279 231M280 232L281 233L280 232M459 232L460 233L459 232M458 233L459 234L458 233M282 235L283 236L282 235M454 239L455 240L454 239M453 240L454 241L453 240M452 241L453 242L452 241M287 242L288 243L287 242M69 243L70 244L69 243M185 243L186 244L185 243M288 243L289 244L288 243M451 243L452 244L451 243M289 244L290 245L289 244M450 244L451 245L450 244M184 245L185 246L184 245M449 245L450 246L449 245M72 246L73 247L72 246M182 246L183 247L182 246M448 246L449 247L448 246M447 247L448 248L447 247M294 250L295 251L294 250M295 251L296 252L295 251M444 251L445 252L444 251M443 252L444 253L443 252M442 253L443 254L442 253M441 254L442 255L441 254M440 255L441 256L440 255M439 256L440 257L439 256M438 257L439 258L438 257M437 258L438 259L437 258M432 263L437 259L432 263M304 260L305 261L304 260M305 261L306 262L305 261M306 262L307 263L306 262M429 265L430 266L429 265M428 266L429 267L428 266M427 267L428 268L427 267M424 270L427 268L424 270M314 269L315 270L314 269M315 270L316 271L315 270M423 270L424 271L423 270M422 271L423 272L422 271M421 272L422 273L421 272M420 273L421 274L420 273M418 274L419 275L418 274M417 275L418 276L417 275M416 276L417 277L416 276M414.667 277.333L415.333 277.667L414.667 277.333M32 278L33 279L32 278M222 278L223 279L222 278M413 278L414 279L413 278M33 279L33 281L35 281L33 279M221 279L220 281L222 281L221 279M412 279L413 280L412 279M410 280L411 281L410 280M35 281L36 282L35 281M218.667 281.333L219.333 281.667L218.667 281.333M37 282L37 283L107 283C107 291.98 103.545 309.98 108.179 317.786C111.881 324.022 141.119 324.022 144.821 317.786C149.455 309.98 146 291.98 146 283L218 283L200 282L164 282L37 282M400 287L401 288L400 287M398.667 288.333L399.333 288.667L398.667 288.333M397 289L398 290L397 289M395 290L396 291L395 290M387 295L388 296L387 295M385 296L386 297L385 296M383 297L384 298L383 297M357 298L358 299L357 298M382 298L383 299L382 298M359 299L360 300L359 299z"/>
</svg>
